<?xml version="1.0" encoding="UTF-8"?>
<svg id="Layer_2" data-name="Layer 2" xmlns="http://www.w3.org/2000/svg" viewBox="0 0 850.39 283.46">
  <defs>
    <style>
      .cls-1 {
        fill: #020a0a;
      }

      .cls-2 {
        fill: #e40521;
      }

      .cls-3 {
        fill: #1d1d1b;
      }
    </style>
  </defs>
  <g id="Frame">
    <path class="cls-3" d="M0,0V283.46H850.39V0H0ZM566.93,277.8H5.67V5.67H566.93V277.8Zm277.8,0h-272.13V5.67h272.13V277.8Z"/>
  </g>
  <g id="Berlin">
    <path class="cls-2" d="M485.55,96.01v62.43c0,.81-.54,1.08-.95,.27l-35.63-63.24c-.41-.67-1.22-1.08-2.03-1.08h-15.25c-.95,0-1.62,.67-1.62,1.62v91.16c0,.94,.67,1.62,1.62,1.62h13.23c.95,0,1.62-.68,1.62-1.62v-62.3c0-.81,.54-1.08,.95-.27l35.63,63.11c.41,.68,1.22,1.08,2.03,1.08h15.25c.95,0,1.62-.68,1.62-1.62V96.01c0-.95-.67-1.62-1.62-1.62h-13.23c-.94,0-1.62,.67-1.62,1.62m-95.36,92.77h13.36c.94,0,1.62-.68,1.62-1.62V96.01c0-.95-.67-1.62-1.62-1.62h-13.36c-.94,0-1.62,.67-1.62,1.62v91.16c0,.94,.67,1.62,1.62,1.62m-53.28-16.45V96.01c0-.95-.67-1.62-1.62-1.62h-13.36c-.94,0-1.62,.67-1.62,1.62v91.16c0,.94,.67,1.62,1.62,1.62h46.02c.95,0,1.62-.68,1.62-1.62v-12.41c0-.94-.67-1.62-1.62-1.62h-30.23c-.54,0-.81-.4-.81-.81m-87.29-62.3h12.28c10.93,0,19.7,5.8,19.7,17.8s-8.77,17.8-19.84,17.8h-12.15c-.54,0-.81-.4-.81-.81v-33.98c0-.54,.27-.81,.81-.81m31.31,78.75h17c1.35,0,1.75-.95,.95-2.02l-20.25-27.37c-.27-.4-.27-.94,.27-1.21,12.01-4.85,19.98-15.51,19.98-30.34,0-21.04-15.93-33.44-36.17-33.44h-28.88c-.95,0-1.62,.67-1.62,1.62v91.16c0,.94,.67,1.62,1.62,1.62h13.36c.94,0,1.62-.68,1.62-1.62v-25.08c0-.54,.4-.81,.81-.81h10.26c.41,0,.81,.27,1.08,.54l18.09,25.89c.41,.68,1.08,1.08,1.89,1.08m-73.26-80.37v-12.41c0-.95-.67-1.62-1.62-1.62h-49.13c-.95,0-1.62,.67-1.62,1.62v91.16c0,.94,.67,1.62,1.62,1.62h49.13c.95,0,1.62-.68,1.62-1.62v-12.41c0-.94-.67-1.62-1.62-1.62h-33.47c-.54,0-.81-.4-.81-.81v-22.66c0-.54,.41-.81,.81-.81h33.47c.95,0,1.62-.67,1.62-1.62v-12.27c0-.95-.67-1.62-1.62-1.62h-33.47c-.54,0-.81-.27-.81-.81v-21.71c0-.54,.41-.81,.81-.81h33.47c.95,0,1.62-.67,1.62-1.62m-105.22,64.72h-14.31c-.54,0-.81-.4-.81-.81v-22.66c0-.54,.27-.81,.81-.81h14.31c8.77,0,13.63,4.99,13.63,12.14s-4.86,12.13-13.63,12.13m-1.35-63.11c8.5,0,13.22,4.59,13.22,11.6s-4.72,11.73-13.22,11.73h-12.96c-.54,0-.81-.27-.81-.81v-21.71c0-.54,.27-.81,.81-.81h12.96Zm19.7,29.67c6.75-4.31,10.8-11.06,10.8-19.82,0-14.43-9.99-25.49-28.34-25.49h-30.77c-.94,0-1.62,.67-1.62,1.62v91.16c0,.94,.67,1.62,1.62,1.62h31.99c18.89,0,28.88-11.46,28.88-26.56,0-9.84-4.72-17.26-12.55-21.44-.54-.4-.54-.81,0-1.08"/>
  </g>
  <g id="Bär">
    <path class="cls-1" d="M750.31,222.16s-4.96-32.87-7.3-46.72c.66-.14,1.02-.22,1.02-.22,2.17-.38,2.99-2.86,2.02-4.53-5.61-9.66-7.61-21.69-7.61-33.64,0-7.37,1.23-14.45,3.51-21.05,.13-.38,.27-.75,.41-1.13,.08-.23,.24-.74,.28-.82,1.51-3.29,4.24-10.43,5.04-18.43,.65-6.47-.17-11.87-1.3-16.93-.54-2.45-1.92-6.48-2.8-8.35-.15-.27-.3-.54-.45-.8,2.02-2.03,2.42-5.28,.86-7.98-1.83-3.16-5.59-4.41-8.4-2.79-.3,.17-.99,.66-1.3,.88-.51-.38-.81-.56-.81-.56-.02-.01-.79-.52-1.47-.88,0,0-.26-.13-.26-.14-2.88-1.28-6.01-1.96-9.37-1.96-1.64,0-3.24,.17-4.8,.49-3.35,.7-6.44,2.11-9.1,4.08-1.39,.44-2.88,.55-2.88,.55l-3.8,.18c-1.79,.08-3.83-.01-3.83-.01-.89,0-1.62,.73-1.62,1.62,0,.08,.59,5.31,.59,5.32,.14,1.31,.69,2.54,1.79,3.25l.13,.09c.35,.23,.53,.42,.6,.62,.42,1.14,1.27,2.27,1.84,2.62,.26,.16,.67,.08,.74-.21,.72-2.85,2.42,.23,5.66-1.53,.83-.45,1.28,1.57,.93,2.45l-.3,.76c-.67,1.7-2.21,2.91-4.02,3.18-1.43,.21-2.26,.35-2.24,.55,.17,1.61-.02,3,1.62,3.97,.48,.26,.72,.32,.72,.32,2.51,.66,9.83,3.47,.52,14.46,0,0-.88,.99-1.57,1.97-.2,.28-.37,.58-.51,.89l-.19,.4-28-10.48c-.84-.33-1.93-1.25-2.45-1.99l-2.76-4.74c-1.71-2.37-3.21-3.27-6.18-3.51-2.15-.18-3.9-.01-3.9-.01-.83,.04-1.31,.24-1.49,.72-.19,.53-.21,1.85,.61,3.51l2.4,4.41c.21,.31,3.24,7.09,3.24,7.09,.3,.84,.82,1.57,1.5,2.14,.06,.05,28.74,21.72,28.74,21.72l-30.29,15.11c-.87,.47-1.9,.58-2.85,.29-1.11-.34-2.7-.82-2.71-.82-4.96-2.21-8.69-.67-10.87,1.16-.02,.02-.86,.81-.86,.81-.83,.82-.52,1.94,.42,2.4,0,0,4.78,2.81,5.83,3.53l7.44,4.41c1.15,.67,2.52,.89,3.83,.62l29.41-5.93c.71,11.26,3.55,20.62,3.55,20.62-5.3,5.1-12.61,14.83-15.01,28.19-1.43,7.94-.96,15.13,1.2,23.59-4.11,.23-8.07,.83-11.36,3.12-3.13,2.18-3.77,6.06-3.79,8l22.96,.05h1.94c2.42-.04,3.04-2.44,3.04-2.44,.24-.73,.31-1.68,.42-2.38,.73-4.59,1.31-9.37,5.4-17.61,3.3-6.66,9.14-12.65,9.15-12.65,.01,.02,9.66,14.31,25.98,24.11-3.13,.2-7.17,1.23-9.57,2.56-3.8,2.11-4.85,6.45-4.76,8.47h23.79c1.64,0,3-1.06,3.49-2.5,.05-.15,.09-.3,.12-.46,.02-.11,.04-.23,.05-.34,.02-.24,.03-.5,0-.75Z"/>
  </g>
</svg>