<?xml version="1.0" encoding="UTF-8"?>
<svg id="Layer_2" data-name="Layer 2" xmlns="http://www.w3.org/2000/svg" viewBox="0 0 676.32 540.48">
  <defs>
    <style>
      .cls-1 {
        font-family: Fredoka-Regular, Fredoka;
        font-size: 143.26px;
        font-variation-settings: 'wght' 400, 'wdth' 100;
      }

      .cls-1, .cls-2 {
        fill: #da6939;
      }

      .cls-3 {
        fill: #575a5e;
      }

      .cls-4 {
        letter-spacing: 0em;
      }

      .cls-5 {
        letter-spacing: -.02em;
      }

      .cls-6 {
        letter-spacing: 0em;
      }
    </style>
  </defs>
  <g id="Layer_1-2" data-name="Layer 1">
    <g>
      <path class="cls-2" d="M297.46,351.06c-65.75-6.21-115.55-37.92-145.33-96.88-31.59-62.54-24.75-123.81,14.93-181.01C196.83,30.25,240.17,8.95,290.63,.91c32.02-5.1,56.92,11.64,62.65,40.87,5.09,25.97-13.05,47.44-45.92,54.34-53.78,11.3-77.19,36.56-76.32,82.35,.83,43.24,25.29,69,75.61,77.12,23.94,3.86,39.17,15.97,44.97,39.06,5.14,20.43-4.55,35.67-19.38,48.61-10.17,8.88-22.42,7.36-34.79,7.81Z"/>
      <path class="cls-3" d="M505.73,49.43c2.86,15.84-7.52,26.94-17.67,37.86-21.5,23.11-42.25,47.06-65.33,68.49-17.8,16.53-14.1,27.78,1.33,42.95,23.81,23.4,46.43,48.11,68.17,73.46,20.43,23.82,19.12,48.52-1.2,66.19-21.14,18.38-45.44,17.83-66.74-4.17-46.5-48.03-91.9-97.12-138.03-145.51-9.06-9.51-11.9-17.04-1.12-27.98,46.26-46.96,91.54-94.9,137.82-141.85,15.99-16.22,35.41-24.1,58.16-13.21,17.85,8.55,25.94,23,24.61,43.77Z"/>
    </g>
    <text class="cls-1" transform="translate(0 504.38)"><tspan x="0" y="0">lan</tspan><tspan class="cls-4" x="202.28" y="0">d</tspan><tspan class="cls-5" x="285.08" y="0">o</tspan><tspan class="cls-6" x="363.01" y="0">zone</tspan></text>
  </g>
</svg>